<svg width="173" height="35" viewBox="0 0 173 35" fill="none" xmlns="http://www.w3.org/2000/svg">
<path d="M48.4968 17.3637C49.5321 17.6796 50.3455 18.2108 50.937 18.9575C51.5286 19.7042 51.8244 20.5657 51.8244 21.5421C51.8244 22.4468 51.4815 23.3011 50.7959 24.1052C50.1236 24.895 49.2766 25.5268 48.2548 26.0006C47.2465 26.4745 46.2852 26.7114 45.3709 26.7114C44.6987 26.7114 44.0399 26.6755 43.3946 26.6037C42.319 26.5319 41.4854 26.496 40.8939 26.496H38.3327V25.8283L40.2284 24.2345V11.139L38.131 10.4067L38.5343 9.54517H40.8737C42.0972 9.54517 43.3005 9.50209 44.4836 9.41593C45.3978 9.3585 46.0701 9.32978 46.5003 9.32978C47.4011 9.32978 48.1943 9.51645 48.88 9.88978C49.5657 10.2631 50.09 10.7729 50.453 11.419C50.8295 12.0508 51.0177 12.7616 51.0177 13.5513C51.0177 14.2693 50.7824 14.9585 50.3119 15.619C49.8547 16.2652 49.2497 16.8324 48.4968 17.3206V17.3637ZM48.2952 14.6283C48.2952 13.4939 48.0128 12.5677 47.4481 11.8498C46.8835 11.1318 46.0432 10.7729 44.9273 10.7729C44.1206 10.7729 43.3946 11.017 42.7492 11.5052V17.2129H45.6331C46.4667 17.2129 47.1187 16.9903 47.5893 16.5452C48.0599 16.0857 48.2952 15.4396 48.2952 14.6067V14.6283ZM45.9356 25.1391C46.9036 25.1391 47.67 24.8806 48.2347 24.3637C48.8128 23.8468 49.1018 23.1504 49.1018 22.2745C49.1018 21.1545 48.7926 20.2498 48.1742 19.5606C47.5691 18.8714 46.6616 18.5052 45.4516 18.4621C45.3575 18.4765 45.2298 18.4837 45.0684 18.4837H42.7492V24.5791C43.65 24.9668 44.7121 25.1606 45.9356 25.1606V25.1391Z" fill="#E7E3E3"/>
<path d="M66.0232 26.4745H62.1915V24.2345L59.6303 26.5176C59.3479 26.6324 58.9782 26.6899 58.5211 26.6899C57.6068 26.6899 56.8808 26.3955 56.343 25.8068C55.8053 25.2037 55.5364 24.3924 55.5364 23.3729V18.2252L53.7415 17.1052V16.4375L57.1901 14.6283H57.9564V22.296C57.9564 23.0857 58.0707 23.6386 58.2992 23.9545C58.5278 24.2704 58.9379 24.4283 59.5294 24.4283C59.9462 24.4283 60.3563 24.3493 60.7596 24.1914C61.163 24.0191 61.6402 23.6888 62.1915 23.2006V18.2252L60.3966 17.1052V16.4375L63.8452 14.6283H64.6115V24.8591L66.4265 25.6129L66.0232 26.4745Z" fill="#E7E3E3"/>
<path d="M77.0791 16.5237C77.4556 17.098 77.6438 17.7442 77.6438 18.4621C77.6438 19.0939 77.4757 19.7185 77.1396 20.336C76.8035 20.9391 76.3531 21.4703 75.7884 21.9298C75.2238 22.3893 74.6053 22.7339 73.9331 22.9637C73.5701 23.3514 73.3886 23.7606 73.3886 24.1914C73.3886 24.4355 73.5634 24.6652 73.9129 24.8806C74.2759 25.0816 74.807 25.3258 75.5061 25.6129C76.4607 26.015 77.1934 26.3811 77.7043 26.7114C78.2287 27.056 78.4908 27.4724 78.4908 27.9606C78.4908 28.3914 78.2287 28.9442 77.7043 29.6191C77.1934 30.294 76.5548 30.8827 75.7884 31.3853C75.0221 31.8878 74.2826 32.1391 73.5701 32.1391C72.8172 32.1391 71.9231 32.0027 70.8879 31.7299C69.8661 31.4571 69.0123 31.1842 68.3267 30.9114V27.5945H69.093C69.8459 28.5853 70.6123 29.3391 71.392 29.856C72.1718 30.373 73.0525 30.6314 74.0339 30.6314C74.3969 30.6314 74.7263 30.5524 75.0221 30.3945C75.3313 30.2365 75.5666 30.0355 75.7279 29.7914C75.9027 29.5617 75.9901 29.3391 75.9901 29.1237C75.9901 28.736 75.7817 28.3986 75.3649 28.1114C74.9482 27.8386 74.2961 27.5011 73.4087 27.0991C72.5617 26.7258 71.9298 26.4027 71.513 26.1299C71.1097 25.857 70.908 25.5411 70.908 25.1822C70.908 24.8375 71.1231 24.4857 71.5534 24.1268C71.9836 23.7678 72.4945 23.4519 73.0861 23.1791C72.871 23.2222 72.6491 23.2437 72.4206 23.2437C71.708 23.2437 71.0559 23.0786 70.4644 22.7483C69.8728 22.4037 69.4022 21.9514 69.0527 21.3914C68.7165 20.8314 68.5485 20.2211 68.5485 19.5606C68.5485 18.7708 68.8039 18.0098 69.3148 17.2775C69.8257 16.5452 70.4845 15.9565 71.2912 15.5113C72.1113 15.0519 72.9449 14.8221 73.7919 14.8221C74.733 14.8221 75.5599 15.1093 76.2725 15.6837H79.4387L79.4588 16.5237H77.0791ZM73.5902 21.3914C74.1953 21.3914 74.6524 21.2334 74.9616 20.9175C75.2843 20.5873 75.4456 20.1062 75.4456 19.4744C75.4456 18.6129 75.1834 17.9165 74.6591 17.3852C74.1482 16.8539 73.4692 16.5883 72.6222 16.5883C72.0307 16.5883 71.5735 16.7462 71.2509 17.0621C70.9416 17.3637 70.787 17.8303 70.787 18.4621C70.787 19.338 71.0425 20.0488 71.5534 20.5944C72.0777 21.1257 72.7567 21.3914 73.5902 21.3914Z" fill="#E7E3E3"/>
<path d="M101.036 14.5421L100.431 14.7575L97.7492 10.5144H95.2888V24.8375L97.4064 25.6129L97.003 26.4745H90.8723V25.8068L92.768 24.2129V10.5144H90.3681L87.6859 14.7575L87.0809 14.5421V9.15747L88.1699 9.54517H99.9474L101.036 9.15747V14.5421Z" fill="#E7E3E3"/>
<path d="M109.026 14.8437C109.47 14.8437 109.86 14.9729 110.196 15.2313C110.532 15.4898 110.794 15.8488 110.983 16.3083L109.652 18.096H108.885C108.831 17.737 108.731 17.4857 108.583 17.3421C108.448 17.1842 108.26 17.1052 108.018 17.1052C107.722 17.1052 107.406 17.1914 107.07 17.3637C106.747 17.5216 106.378 17.8303 105.961 18.2898V24.7083L108.784 25.6345L108.381 26.496H101.746V25.8283L103.541 24.3206V18.2252L101.746 17.1052V16.4375L105.195 14.6283L105.82 17.2775L107.917 14.9944C108.199 14.8795 108.569 14.8221 109.026 14.8221V14.8437Z" fill="#E7E3E3"/>
<path d="M122.514 26.4745H118.682V24.6006L116.403 26.5176C116.134 26.6324 115.798 26.6899 115.395 26.6899C114.239 26.6899 113.398 26.3811 112.874 25.7637C112.363 25.1463 112.108 24.4068 112.108 23.5452C112.108 23.0283 112.282 22.5186 112.632 22.016C112.982 21.5134 113.479 21.0396 114.124 20.5944H118.682V19.216C118.682 18.2826 118.447 17.6221 117.976 17.2344C117.519 16.8467 116.887 16.6529 116.081 16.6529C115.247 16.6529 114.225 17.1914 113.015 18.2683L112.41 17.4498L115.314 14.9944C115.852 14.8795 116.497 14.8221 117.25 14.8221C118.474 14.8221 119.422 15.1452 120.094 15.7913C120.766 16.4231 121.102 17.3493 121.102 18.5698V24.8591L122.917 25.6129L122.514 26.4745ZM116.04 24.8591C116.86 24.8591 117.741 24.457 118.682 23.6529V21.4775H115.113C114.938 21.7073 114.81 21.937 114.729 22.1668C114.662 22.3965 114.629 22.6478 114.629 22.9206C114.629 23.4519 114.756 23.9114 115.012 24.2991C115.267 24.6724 115.61 24.8591 116.04 24.8591Z" fill="#E7E3E3"/>
<path d="M130.502 14.8221C131.053 14.8221 131.692 14.9083 132.418 15.0806C133.157 15.2385 133.688 15.418 134.011 15.619V18.936H133.245C132.72 18.218 132.115 17.658 131.43 17.256C130.757 16.8396 130.058 16.6314 129.332 16.6314C128.714 16.6314 128.243 16.9257 127.92 17.5144C127.611 18.1032 127.457 18.9647 127.457 20.0991C127.457 21.4488 127.732 22.5832 128.283 23.5022C128.835 24.4068 129.621 24.8591 130.643 24.8591C131.409 24.8591 132.498 24.2704 133.91 23.0929L134.515 23.9114L131.409 26.5176C130.872 26.6324 130.226 26.6899 129.473 26.6899C128.586 26.6899 127.786 26.4458 127.073 25.9575C126.374 25.455 125.823 24.7801 125.42 23.9329C125.03 23.0857 124.835 22.1524 124.835 21.1329C124.835 20.0273 125.124 18.9862 125.702 18.0098C126.294 17.0334 127.033 16.258 127.92 15.6837C128.808 15.1093 129.668 14.8221 130.502 14.8221Z" fill="#E7E3E3"/>
<path d="M142.527 25.6129L142.124 26.4745H136.497V25.8068L138.292 24.2991V11.0529L136.497 9.71747V9.04978L139.946 7.67131H140.712V24.8591L142.527 25.6129ZM148.98 26.4745H145.572L141.781 20.7883L145.552 17.4067L143.616 15.899L144.019 15.0375H148.839V15.7052L144.161 19.9052L147.569 24.8591L149.384 25.6129L148.98 26.4745Z" fill="#E7E3E3"/>
<path d="M157.682 26.5176C157.144 26.6324 156.498 26.6899 155.746 26.6899C154.858 26.6899 154.058 26.4458 153.346 25.9575C152.647 25.455 152.095 24.7801 151.692 23.9329C151.302 23.0857 151.107 22.1524 151.107 21.1329C151.107 20.0273 151.423 18.9934 152.055 18.0314C152.687 17.0549 153.473 16.2796 154.415 15.7052C155.369 15.1165 156.29 14.8221 157.177 14.8221C158.455 14.8221 159.443 15.3606 160.142 16.4375C160.855 17.5144 161.211 18.936 161.211 20.7021H153.749C153.83 21.9227 154.139 22.9206 154.677 23.696C155.228 24.4714 155.974 24.8591 156.915 24.8591C157.789 24.8591 159.033 24.134 160.646 22.6837L161.251 23.5022L157.682 26.5176ZM156.008 16.6314C154.556 16.6314 153.796 17.6939 153.729 19.8191H158.448C158.327 19.0437 158.199 18.455 158.065 18.0529C157.944 17.6365 157.722 17.299 157.399 17.0406C157.09 16.7678 156.626 16.6314 156.008 16.6314Z" fill="#E7E3E3"/>
<path d="M171.044 14.8437C171.487 14.8437 171.877 14.9729 172.213 15.2313C172.55 15.4898 172.812 15.8488 173 16.3083L171.669 18.096H170.903C170.849 17.737 170.748 17.4857 170.6 17.3421C170.466 17.1842 170.277 17.1052 170.035 17.1052C169.74 17.1052 169.424 17.1914 169.088 17.3637C168.765 17.5216 168.395 17.8303 167.978 18.2898V24.7083L170.802 25.6345L170.398 26.496H163.764V25.8283L165.558 24.3206V18.2252L163.764 17.1052V16.4375L167.212 14.6283L167.837 17.2775L169.935 14.9944C170.217 14.8795 170.587 14.8221 171.044 14.8221V14.8437Z" fill="#E7E3E3"/>
<path d="M27.9753 29.0566C27.7953 28.8637 27.5511 28.7554 27.2965 28.7554H23.4248C24.0399 26.9454 23.9553 25.694 23.9553 23.824H29.2166C29.7468 23.824 30.1767 23.3636 30.1767 22.7956C30.1767 22.2277 29.7468 21.7673 29.2166 21.7673H23.9553V16.8358H27.2964C27.5511 16.8358 27.7953 16.7275 27.9753 16.5346L29.9275 14.4436C30.3024 14.042 30.3024 13.391 29.9275 12.9894C29.5526 12.5878 28.9446 12.5878 28.5697 12.9894L26.8987 14.7792H23.6761C23.2057 13.5855 22.1847 12.6999 20.956 12.4881V10.2538C20.956 8.53552 20.4176 6.96024 19.5261 5.74112L22.9513 1.72191C23.3089 1.30245 23.2811 0.651942 22.8895 0.26906C22.498 -0.113891 21.8907 -0.0842232 21.5332 0.3353L18.1267 4.33256C16.1635 2.89934 13.6591 2.89749 11.6933 4.33256L8.28677 0.335095C7.92917 -0.0844283 7.32194 -0.114028 6.93041 0.268855C6.53875 0.651737 6.51104 1.30218 6.86858 1.7217L10.2938 5.74091C9.40234 6.96004 8.86386 8.53532 8.86386 10.2537V12.5805C7.81191 12.8958 6.95441 13.7147 6.53491 14.779H3.30994L1.63898 12.9892C1.2641 12.5876 0.656164 12.5876 0.281213 12.9892C-0.0937376 13.3908 -0.0937376 14.0419 0.281213 14.4435L2.23341 16.5345C2.41346 16.7273 2.65765 16.8357 2.91227 16.8357H6.25572V21.7672H0.992134C0.461903 21.7672 0.0320352 22.2276 0.0320352 22.7955C0.0320352 23.3634 0.461903 23.8238 0.992134 23.8238H6.25578V25.5215C6.25578 26.6567 6.44326 27.7456 6.78633 28.7552H2.91233C2.65765 28.7552 2.41346 28.8636 2.23348 29.0564L0.281277 31.1474C-0.0936737 31.549 -0.0936737 32.2001 0.281277 32.6017C0.656163 33.0033 1.2641 33.0034 1.63905 32.6017L3.31 30.8119H7.76576C11.2787 36.3854 18.9192 36.4067 22.4455 30.8119H26.8989L28.5698 32.6017C28.9447 33.0033 29.5526 33.0034 29.9276 32.6017C30.3025 32.2001 30.3025 31.549 29.9276 31.1474L27.9753 29.0566ZM19.0358 10.2536V12.4387H10.7841V10.2536C10.7841 7.52988 12.635 5.31407 14.91 5.31407C17.185 5.31407 19.0358 7.52995 19.0358 10.2536ZM8.17598 25.5216V16.2608C8.17598 15.2874 8.91532 14.4955 9.82402 14.4955H14.0803V32.8626C10.7438 32.3302 8.17598 29.2412 8.17598 25.5216ZM16.0005 32.8822V14.4955H20.3871C21.3012 14.4955 22.0351 15.2945 22.0351 16.2608V25.5217C22.0351 29.2895 19.4002 32.4106 16.0005 32.8822Z" fill="#E7E3E3"/>
</svg>
